<svg xmlns="http://www.w3.org/2000/svg" data-name="Layer 1" viewBox="0 0 64 64"><path d="M59,44V41a1,1,0,0,0-1-1H54.23438a17.232,17.232,0,0,0-1.22315-2.94531l2.665-2.65674a.99965.99965,0,0,0,.001-1.415l-5.66016-5.66016a1.00011,1.00011,0,0,0-.707-.293h-.001a.99816.99816,0,0,0-.707.29394l-2.65674,2.665A17.232,17.232,0,0,0,43,28.76562V25a1,1,0,0,0-1-1H39V15.89893A4.99757,4.99757,0,1,0,34.02557,8H15V7a1,1,0,0,0-1-1H12V3a1,1,0,0,0-1-1H6A1,1,0,0,0,5,3V6H3A1,1,0,0,0,2,7v8a1,1,0,0,0,1,1H4V61a1,1,0,0,0,1,1h7a1,1,0,0,0,1-1V16h1a1,1,0,0,0,1-1V14H34.02557A4.99212,4.99212,0,0,0,37,15.89893V24H34a1,1,0,0,0-1,1v3.76562a17.232,17.232,0,0,0-2.94531,1.22315l-2.65674-2.665a.99816.99816,0,0,0-.707-.29394h-.001a1.00011,1.00011,0,0,0-.707.293l-5.66016,5.66016a.99965.99965,0,0,0,.001,1.415l2.665,2.65674A17.232,17.232,0,0,0,21.76562,40H18a1,1,0,0,0-1,1v3.18427A2.99507,2.99507,0,0,0,15,47v8a2.995,2.995,0,0,0,2,2.81567V61a1,1,0,0,0,1,1h6a1,1,0,0,0,1-1V58H52v3a1,1,0,0,0,1,1h6a1,1,0,0,0,1-1V57.81573A2.99507,2.99507,0,0,0,62,55V47A3.00328,3.00328,0,0,0,59,44ZM7,4h3V6H7Zm4,56H6V56.46l5-4.2857ZM6,53.82568V46.17432L10.46338,50Zm5-6L6.53662,44,11,40.17432Zm-5-6V34.17432L10.46338,38Zm5-6L6.53662,32,11,28.17432Zm-5-6V22.17432L10.46338,26Zm5-6L6,19.54V16h5ZM13,9v5H4V8h9Zm20.10107,3H15V10H33.10107a4.9976,4.9976,0,0,0,0,2ZM35,11a3,3,0,1,1,3,3A3.00328,3.00328,0,0,1,35,11ZM19,42h3.52a1.00036,1.00036,0,0,0,.96777-.748,15.26271,15.26271,0,0,1,1.605-3.8667.999.999,0,0,0-.15673-1.21337L22.44531,33.689,26.689,29.44531,29.17188,31.936a1.00088,1.00088,0,0,0,1.21337.15673,15.26271,15.26271,0,0,1,3.8667-1.605A1.00036,1.00036,0,0,0,35,29.52V26h6v3.52a1.00036,1.00036,0,0,0,.748.96777,15.26271,15.26271,0,0,1,3.8667,1.605.9989.9989,0,0,0,1.21337-.15673L49.311,29.44531,53.55469,33.689,51.064,36.17188a.999.999,0,0,0-.15673,1.21337,15.26271,15.26271,0,0,1,1.605,3.8667A1.00036,1.00036,0,0,0,53.48,42H57v2H49.94934a11.99031,11.99031,0,0,0-23.89868,0H19Zm28.94934,2H28.05066a9.99941,9.99941,0,0,1,19.89868,0ZM17.42,55.7923A.9825.9825,0,0,1,17,55V47a1.0013,1.0013,0,0,1,1-1h3.50018ZM23,60H19V58h4Zm1.3335-4H19.49982L23.6665,46h4.83368Zm2.16632,0L30.6665,46h4.83368L31.3335,56Zm7,0L37.6665,46h4.83368L38.3335,56Zm7,0L44.6665,46h5.83368L46.3335,56ZM53,56H48.49982L52.6665,46h4.83368L53.3335,56Zm5,4H54V58h4Zm2-5a1.0013,1.0013,0,0,1-1,1H55.49982L59.58,46.2077A.9825.9825,0,0,1,60,47Z"/><rect width="2" height="2" x="37" y="10"/><rect width="2" height="2" x="60" y="2"/><rect width="2" height="2" x="56" y="2"/><rect width="2" height="2" x="60" y="6"/><rect width="2" height="2" x="56" y="6"/><rect width="2" height="2" x="60" y="10"/><rect width="2" height="2" x="52" y="2"/></svg>