<?xml version="1.0" encoding="UTF-8"?>
<svg width="700pt" height="700pt" version="1.1" viewBox="0 0 700 700" xmlns="http://www.w3.org/2000/svg" xmlns:xlink="http://www.w3.org/1999/xlink" fill="#003dc0">

 <g>
  <path d="m504.54 549.39h-309.09c-13.625 0-24.707-11.082-24.707-24.707v-420.89c0-13.625 11.082-24.707 24.707-24.707h309.09c13.625 0 24.707 11.082 24.707 24.707v420.89c0 13.621-11.082 24.703-24.707 24.703zm-309.09-453.83c-4.5391 0-8.2344 3.6914-8.2344 8.2344v420.89c0 4.543 3.6953 8.2344 8.2344 8.2344h309.09c4.5391 0 8.2344-3.6914 8.2344-8.2344v-420.89c0-4.543-3.6953-8.2344-8.2344-8.2344z"/>
  <path d="m192.74 95.746c-3.6211 0-6.9453-2.4062-7.9414-6.0703-1.1953-4.3828 1.3906-8.9102 5.7812-10.109l250.11-68.16c7.5859-1.9375 15.328-0.32812 21.395 4.3906 6.0664 4.7109 9.5508 11.82 9.5508 19.512v52c0 4.5508-3.6875 8.2344-8.2344 8.2344s-8.2344-3.6836-8.2344-8.2344l0.003906-52c0-2.5664-1.1641-4.9297-3.1836-6.5078-2.0195-1.5586-4.5977-2.125-7.0898-1.4727l-249.98 68.125c-0.72656 0.20703-1.457 0.29297-2.1719 0.29297z"/>
  <path d="m456.56 328.71c-4.5469 0-8.2344-3.6836-8.2344-8.2344 0-54.27-44.113-98.414-98.328-98.414-54.219 0-98.332 44.145-98.332 98.414 0 4.5508-3.6875 8.2344-8.2344 8.2344s-8.2344-3.6836-8.2344-8.2344c0-63.348 51.5-114.88 114.8-114.88s114.8 51.535 114.8 114.88c-0.003906 4.5508-3.6914 8.2344-8.2383 8.2344z"/>
  <path d="m461.09 366.27h-222.19c-14.895 0-27.016-12.121-27.016-27.016s12.121-27.016 27.016-27.016h222.19c14.895 0 27.012 12.121 27.012 27.016s-12.117 27.016-27.012 27.016zm-222.19-37.559c-5.8164 0-10.543 4.7305-10.543 10.543 0 5.8164 4.7305 10.543 10.543 10.543h222.19c5.8086 0 10.539-4.7305 10.539-10.543 0-5.8164-4.7305-10.543-10.539-10.543z"/>
  <path d="m333.78 223.3c-3.6562 0-6.9922-2.4453-7.9609-6.1445-2.1094-8.0586-5.0742-15.859-8.2148-24.117-1.5273-3.9258-2.3477-8.293-2.3477-12.562 0-11.043 5.0625-21.176 13.895-27.801 8.8828-6.668 20.262-8.6523 31.23-5.4688 10.586 3.1602 19.219 11.598 22.582 22.012 2.9258 9.1914 2.2227 18.805-1.9688 27.086-2.9492 5.75-5.2109 12.273-7.1523 20.555-1.0391 4.4375-5.4766 7.1641-9.8945 6.1445-4.4258-1.0391-7.1758-5.4688-6.1406-9.8906 2.25-9.625 4.957-17.34 8.5117-24.281 2.2148-4.375 2.5625-9.5625 0.96484-14.582-1.7188-5.3086-6.1484-9.6328-11.562-11.25-5.9727-1.7305-11.922-0.73047-16.684 2.8477-4.6445 3.4805-7.3086 8.8125-7.3086 14.629 0 2.2422 0.43359 4.543 1.25 6.6445 3.1797 8.3633 6.4375 16.945 8.7734 25.855 1.1523 4.3984-1.4805 8.9023-5.8789 10.062-0.70312 0.17578-1.4062 0.26172-2.0938 0.26172z"/>
  <path d="m356.3 425.12h-136.15c-4.5469 0-8.2344-3.6836-8.2344-8.2344s3.6875-8.2344 8.2344-8.2344h136.15c4.5469 0 8.2344 3.6836 8.2344 8.2344s-3.6875 8.2344-8.2344 8.2344z"/>
  <path d="m479.85 482.77h-259.68c-4.5469 0-8.2344-3.6836-8.2344-8.2344 0-4.5508 3.6875-8.2344 8.2344-8.2344h259.68c4.5469 0 8.2344 3.6836 8.2344 8.2344 0 4.5508-3.6836 8.2344-8.2344 8.2344z"/>

 </g>
</svg>
